<svg width="441" height="150" viewBox="0 0 441 150" fill="none" xmlns="http://www.w3.org/2000/svg">
<g clip-path="url(#paint0_diamond_50_106_clip_path)" data-figma-skip-parse="true"><g transform="matrix(-0.1405 0.2245 -0.246654 -0.154365 421 119.5)"><rect x="0" y="0" width="946.14" height="1449.08" fill="url(#paint0_diamond_50_106)" opacity="1" shape-rendering="crispEdges"/><rect x="0" y="0" width="946.14" height="1449.08" transform="scale(1 -1)" fill="url(#paint0_diamond_50_106)" opacity="1" shape-rendering="crispEdges"/><rect x="0" y="0" width="946.14" height="1449.08" transform="scale(-1 1)" fill="url(#paint0_diamond_50_106)" opacity="1" shape-rendering="crispEdges"/><rect x="0" y="0" width="946.14" height="1449.08" transform="scale(-1)" fill="url(#paint0_diamond_50_106)" opacity="1" shape-rendering="crispEdges"/></g></g><rect width="441" height="150" rx="12" data-figma-gradient-fill="{&#34;type&#34;:&#34;GRADIENT_DIAMOND&#34;,&#34;stops&#34;:[{&#34;color&#34;:{&#34;r&#34;:0.65098041296005249,&#34;g&#34;:0.0,&#34;b&#34;:0.29411765933036804,&#34;a&#34;:1.0},&#34;position&#34;:0.0},{&#34;color&#34;:{&#34;r&#34;:0.16470588743686676,&#34;g&#34;:0.56078433990478516,&#34;b&#34;:0.52941179275512695,&#34;a&#34;:1.0},&#34;position&#34;:1.0}],&#34;stopsVar&#34;:[{&#34;color&#34;:{&#34;r&#34;:0.65098041296005249,&#34;g&#34;:0.0,&#34;b&#34;:0.29411765933036804,&#34;a&#34;:1.0},&#34;position&#34;:0.0},{&#34;color&#34;:{&#34;r&#34;:0.16470588743686676,&#34;g&#34;:0.56078433990478516,&#34;b&#34;:0.52941179275512695,&#34;a&#34;:1.0},&#34;position&#34;:1.0}],&#34;transform&#34;:{&#34;m00&#34;:-281.00003051757812,&#34;m01&#34;:-493.30792236328125,&#34;m02&#34;:808.15399169921875,&#34;m10&#34;:448.99996948242188,&#34;m11&#34;:-308.72952270507812,&#34;m12&#34;:49.364772796630859},&#34;opacity&#34;:1.0,&#34;blendMode&#34;:&#34;NORMAL&#34;,&#34;visible&#34;:true}"/>
<path d="M90.832 39.008C91.536 39.84 91.888 40.704 91.888 41.6C91.888 41.984 91.856 42.4 91.792 42.848C91.792 43.232 91.76 43.584 91.696 43.904C91.504 44.608 91.088 45.28 90.448 45.92C89.936 46.304 89.232 46.592 88.336 46.784C87.888 46.912 87.44 47.008 86.992 47.072C86.544 47.136 86.064 47.232 85.552 47.36C85.104 47.424 84.656 47.456 84.208 47.456C83.76 47.456 83.28 47.456 82.768 47.456H77.872C76.72 47.52 75.568 47.552 74.416 47.552C73.328 47.552 72.24 47.552 71.152 47.552C71.216 49.536 71.248 51.68 71.248 53.984C71.248 56.224 71.216 58.848 71.152 61.856C71.152 64.864 71.12 68.352 71.056 72.32C71.056 76.288 71.056 80.896 71.056 86.144V93.44C71.056 94.08 71.088 94.56 71.152 94.88C71.152 95.136 71.152 95.392 71.152 95.648C71.152 95.84 71.12 96.096 71.056 96.416C70.928 96.992 70.832 97.664 70.768 98.432C70.768 98.752 70.736 99.072 70.672 99.392C70.608 99.648 70.512 99.936 70.384 100.256C70.128 100.512 70 100.704 70 100.832L69.712 101.408C69.392 102.048 68.784 102.656 67.888 103.232C66.48 103.936 64.912 104.096 63.184 103.712C62.096 103.584 61.264 103.296 60.688 102.848C60.112 102.272 59.696 101.696 59.44 101.12C59.056 100.416 58.832 99.744 58.768 99.104C58.576 98.528 58.48 97.92 58.48 97.28V47.936C58.096 47.936 57.296 47.936 56.08 47.936C54.864 47.936 53.552 47.936 52.144 47.936C50.8 47.872 49.52 47.808 48.304 47.744C47.088 47.68 46.256 47.616 45.808 47.552C45.424 47.488 44.816 47.392 43.984 47.264C43.216 47.136 42.576 47.008 42.064 46.88C40.72 46.496 39.664 45.888 38.896 45.056C38.192 44.224 37.84 43.296 37.84 42.272C37.84 41.888 37.84 41.504 37.84 41.12C37.84 40.736 37.904 40.384 38.032 40.064C38.224 39.296 38.736 38.656 39.568 38.144C39.824 37.952 40.208 37.728 40.72 37.472C41.296 37.152 41.84 36.928 42.352 36.8C43.12 36.544 44.08 36.352 45.232 36.224C45.744 36.16 46.256 36.128 46.768 36.128C47.28 36.128 47.824 36.128 48.4 36.128C50.64 36.128 52.752 36.128 54.736 36.128C56.784 36.128 58.928 36.096 61.168 36.032C64.88 35.968 68.56 35.968 72.208 36.032C75.92 36.032 79.6 36.096 83.248 36.224C84.08 36.288 84.88 36.384 85.648 36.512C86.416 36.64 87.184 36.864 87.952 37.184C88.528 37.376 89.072 37.632 89.584 37.952C90.096 38.208 90.512 38.56 90.832 39.008ZM99.4158 63.584C101.336 62.624 103.352 61.952 105.464 61.568C107.576 61.12 109.656 61.024 111.704 61.28C113.816 61.472 115.832 62.016 117.752 62.912C119.672 63.744 121.464 64.96 123.128 66.56C124.792 68.224 126.072 70.048 126.968 72.032C127.864 74.016 128.504 76.224 128.888 78.656C129.144 80.32 129.56 81.856 130.136 83.264C130.712 84.672 131.32 86.08 131.96 87.488C132.664 88.896 133.304 90.304 133.88 91.712C134.52 93.12 135.032 94.592 135.416 96.128C135.736 97.6 135.608 99.04 135.032 100.448C134.52 101.792 133.432 102.624 131.768 102.944C130.808 103.136 129.88 103.072 128.984 102.752C128.152 102.368 127.384 101.856 126.68 101.216C125.976 100.512 125.336 99.776 124.76 99.008C124.248 98.176 123.768 97.408 123.32 96.704C121.848 98.624 120.248 100.128 118.52 101.216C116.792 102.24 114.712 102.912 112.28 103.232C110.232 103.488 108.28 103.552 106.424 103.424C104.568 103.296 102.584 102.944 100.472 102.368C97.7198 101.664 95.4478 100.448 93.6558 98.72C91.9278 96.928 90.5838 94.88 89.6238 92.576C88.7278 90.208 88.2478 87.68 88.1838 84.992C88.1198 82.304 88.4398 79.648 89.1438 77.024C90.0398 73.568 91.3838 70.752 93.1758 68.576C94.9678 66.4 97.0478 64.736 99.4158 63.584ZM101.816 74.816C100.92 75.712 100.216 76.768 99.7038 77.984C99.1918 79.2 98.8718 80.48 98.7438 81.824C98.6798 83.168 98.8078 84.512 99.1278 85.856C99.4478 87.2 99.9598 88.384 100.664 89.408C101.304 90.304 102.392 91.072 103.928 91.712C105.464 92.288 107.064 92.64 108.728 92.768C110.648 92.896 112.312 92.384 113.72 91.232C115.192 90.08 116.28 88.64 116.984 86.912C117.752 85.12 118.104 83.232 118.04 81.248C117.976 79.2 117.432 77.344 116.408 75.68C115.64 74.464 114.616 73.568 113.336 72.992C112.12 72.416 110.808 72.128 109.4 72.128C107.992 72.064 106.584 72.288 105.176 72.8C103.832 73.248 102.712 73.92 101.816 74.816ZM143.499 70.016C143.499 69.248 143.499 68.384 143.499 67.424C143.499 66.4 143.531 65.376 143.595 64.352C143.659 63.264 143.755 62.24 143.883 61.28C144.075 60.256 144.331 59.36 144.651 58.592C145.163 57.44 145.963 56.672 147.051 56.288C148.139 55.84 149.323 55.648 150.603 55.712C151.947 55.712 153.003 55.936 153.771 56.384C154.539 56.832 155.115 57.44 155.499 58.208C155.883 58.912 156.107 59.744 156.171 60.704C156.299 61.6 156.363 62.56 156.363 63.584C156.939 62.56 157.707 61.728 158.667 61.088C159.691 60.448 160.715 59.936 161.739 59.552C162.763 59.168 163.691 58.912 164.523 58.784C165.355 58.592 165.835 58.496 165.963 58.496C167.563 58.368 169.003 58.336 170.283 58.4C171.627 58.464 173.099 58.752 174.699 59.264C175.723 59.648 176.779 60.192 177.867 60.896C178.955 61.536 179.915 62.304 180.747 63.2C181.579 64.096 182.123 65.088 182.379 66.176C182.699 67.2 182.571 68.288 181.995 69.44C181.099 71.04 180.107 71.84 179.019 71.84C177.931 71.776 176.747 71.584 175.467 71.264C174.763 71.136 173.931 70.848 172.971 70.4C172.011 69.952 171.179 69.664 170.475 69.536C168.299 69.216 166.379 69.376 164.715 70.016C163.051 70.656 161.611 71.424 160.395 72.32C158.987 73.408 157.771 74.656 156.747 76.064V89.888C156.747 91.616 156.715 93.408 156.651 95.264C156.651 97.12 156.395 98.816 155.883 100.352C155.435 101.824 154.635 103.04 153.483 104C152.395 104.896 150.795 105.28 148.683 105.152C147.531 105.088 146.507 104.544 145.611 103.52C144.715 102.432 144.171 101.376 143.979 100.352C143.851 99.392 143.755 98.24 143.691 96.896C143.627 95.552 143.563 94.144 143.499 92.672C143.499 91.2 143.499 89.728 143.499 88.256C143.499 86.72 143.499 85.312 143.499 84.032V70.016ZM232.998 61.952C233.254 62.72 233.318 63.584 233.19 64.544C233.062 65.504 232.838 66.496 232.518 67.52C232.198 68.48 231.814 69.44 231.366 70.4C230.982 71.296 230.63 72.096 230.31 72.8C228.646 76.192 227.078 79.52 225.606 82.784C224.134 86.048 222.406 89.6 220.422 93.44C220.038 94.208 219.59 95.136 219.078 96.224C218.63 97.248 218.118 98.272 217.542 99.296C216.966 100.256 216.326 101.152 215.622 101.984C214.982 102.816 214.278 103.424 213.51 103.808C212.87 104.192 212.23 104.352 211.59 104.288C211.078 104.416 210.502 104.256 209.862 103.808C209.094 103.424 208.358 102.816 207.654 101.984C207.014 101.152 206.406 100.256 205.83 99.296C205.254 98.272 204.71 97.248 204.198 96.224C203.75 95.136 203.334 94.208 202.95 93.44C202.182 91.968 201.446 90.592 200.742 89.312C200.102 88.032 199.398 86.656 198.63 85.184C197.926 83.648 197.126 81.92 196.23 80C195.334 78.016 194.278 75.616 193.062 72.8C192.742 72.032 192.39 71.232 192.006 70.4C191.622 69.568 191.27 68.672 190.95 67.712C190.694 66.752 190.502 65.792 190.374 64.832C190.31 63.808 190.374 62.784 190.566 61.76C190.758 60.8 191.238 60.032 192.006 59.456C192.774 58.88 193.638 58.496 194.598 58.304C195.558 58.112 196.518 58.144 197.478 58.4C198.438 58.592 199.206 59.008 199.782 59.648C200.358 60.224 200.902 60.992 201.414 61.952C201.926 62.912 202.406 63.936 202.854 65.024C203.366 66.048 203.814 67.104 204.198 68.192C204.646 69.216 205.062 70.112 205.446 70.88C206.342 72.736 207.334 74.752 208.422 76.928C209.574 79.104 210.598 81.12 211.494 82.976C212.134 81.504 212.71 80.288 213.222 79.328C213.734 78.304 214.214 77.312 214.661 76.352C215.174 75.392 215.686 74.336 216.198 73.184C216.774 72.032 217.478 70.56 218.31 68.768C219.078 67.104 219.846 65.472 220.614 63.872C221.446 62.272 222.438 60.864 223.59 59.648C224.166 59.008 224.902 58.592 225.798 58.4C226.694 58.144 227.622 58.112 228.582 58.304C229.542 58.496 230.406 58.912 231.174 59.552C232.006 60.128 232.614 60.928 232.998 61.952ZM253.092 67.616C253.092 69.408 253.092 71.424 253.092 73.664C253.156 75.904 253.188 78.24 253.188 80.672C253.188 83.04 253.188 85.408 253.188 87.776C253.188 90.08 253.156 92.224 253.092 94.208C253.028 95.168 252.932 96.224 252.804 97.376C252.676 98.464 252.42 99.488 252.036 100.448C251.652 101.408 251.044 102.208 250.212 102.848C249.444 103.424 248.388 103.68 247.044 103.616C245.06 103.488 243.62 102.624 242.724 101.024C241.892 99.424 241.412 97.184 241.284 94.304C241.284 92.832 241.252 91.136 241.188 89.216C241.188 87.296 241.156 85.344 241.092 83.36C241.092 81.376 241.092 79.456 241.092 77.6C241.092 75.68 241.092 73.952 241.092 72.416C241.092 71.52 241.06 70.432 240.996 69.152C240.996 67.872 241.028 66.56 241.092 65.216C241.156 63.872 241.316 62.592 241.572 61.376C241.828 60.096 242.244 59.04 242.82 58.208C243.268 57.696 243.908 57.312 244.74 57.056C245.572 56.736 246.436 56.576 247.332 56.576C248.292 56.576 249.188 56.736 250.02 57.056C250.916 57.376 251.556 57.824 251.94 58.4C252.196 58.784 252.388 59.328 252.516 60.032C252.644 60.736 252.74 61.536 252.804 62.432C252.932 63.264 252.996 64.16 252.996 65.12C253.06 66.016 253.092 66.848 253.092 67.616ZM249.444 48.224C247.46 48.736 245.796 48.544 244.452 47.648C243.172 46.688 242.372 45.28 242.052 43.424C241.796 42.08 241.892 40.896 242.34 39.872C242.788 38.848 243.46 38.08 244.356 37.568C245.252 36.992 246.276 36.736 247.428 36.8C248.58 36.864 249.732 37.312 250.884 38.144C251.972 38.912 252.74 39.808 253.188 40.832C253.7 41.856 253.86 42.848 253.668 43.808C253.54 44.768 253.124 45.664 252.42 46.496C251.716 47.264 250.724 47.84 249.444 48.224ZM262.655 69.728C262.655 68.256 262.623 66.688 262.559 65.024C262.559 63.36 262.847 61.856 263.423 60.512C263.935 59.296 264.767 58.432 265.919 57.92C267.135 57.344 268.319 57.216 269.471 57.536C270.623 57.728 271.519 58.08 272.159 58.592C272.799 59.104 273.247 59.712 273.503 60.416C273.823 61.056 274.015 61.824 274.079 62.72C274.143 63.552 274.207 64.384 274.271 65.216C274.911 64.064 275.711 63.136 276.671 62.432C277.631 61.728 278.623 61.152 279.647 60.704C280.671 60.256 281.631 59.936 282.527 59.744C283.487 59.552 284.223 59.456 284.735 59.456C287.167 59.456 289.567 60 291.935 61.088C294.367 62.112 296.383 63.584 297.983 65.504C298.879 66.656 299.551 67.872 299.999 69.152C300.511 70.368 300.863 71.648 301.055 72.992C301.311 74.336 301.471 75.712 301.535 77.12C301.599 78.464 301.663 79.84 301.727 81.248C302.047 85.344 302.047 89.408 301.727 93.44C301.663 94.272 301.631 95.232 301.631 96.32C301.631 97.408 301.535 98.496 301.343 99.584C301.215 100.608 300.927 101.536 300.479 102.368C300.095 103.136 299.423 103.616 298.463 103.808C297.119 104.128 295.999 104.192 295.103 104C294.271 103.872 293.599 103.584 293.087 103.136C292.575 102.688 292.191 102.112 291.935 101.408C291.679 100.704 291.455 99.904 291.263 99.008C291.135 98.304 291.007 97.504 290.879 96.608C290.815 95.648 290.751 94.688 290.687 93.728C290.687 92.768 290.655 91.84 290.591 90.944C290.591 89.984 290.591 89.12 290.591 88.352C290.591 87.136 290.559 85.792 290.495 84.32C290.431 82.848 290.431 81.472 290.495 80.192C290.495 77.184 289.695 74.912 288.095 73.376C286.559 71.776 284.447 71.104 281.759 71.36C279.711 71.616 277.919 72.448 276.383 73.856C274.847 75.2 274.111 76.96 274.175 79.136C274.175 79.968 274.175 80.736 274.175 81.44C274.175 82.144 274.143 82.848 274.079 83.552C274.079 84.256 274.079 85.024 274.079 85.856C274.079 86.688 274.079 87.616 274.079 88.64C274.079 90.752 274.079 92.992 274.079 95.36C274.079 97.664 273.791 99.552 273.215 101.024C272.703 102.56 271.839 103.616 270.623 104.192C269.407 104.768 267.967 104.608 266.303 103.712C265.599 103.328 265.023 102.816 264.575 102.176C264.191 101.472 263.871 100.736 263.615 99.968C263.423 99.2 263.295 98.432 263.231 97.664C263.167 96.832 263.103 96.064 263.039 95.36C262.847 93.248 262.719 91.296 262.655 89.504C262.655 87.648 262.655 85.664 262.655 83.552V69.728ZM349.555 85.856C349.555 87.904 349.491 90.112 349.363 92.48C349.299 94.848 349.203 97.056 349.075 99.104C349.075 101.024 348.979 102.944 348.787 104.864C348.659 106.528 348.403 108.32 348.019 110.24C347.635 112.224 347.091 114.048 346.387 115.712C345.491 117.888 344.275 119.744 342.739 121.28C341.203 122.88 339.219 124.032 336.787 124.736C334.739 125.248 332.819 125.568 331.027 125.696C329.235 125.888 327.315 125.856 325.267 125.6C323.923 125.408 322.483 125.024 320.947 124.448C319.411 123.936 317.971 123.264 316.627 122.432C315.283 121.6 314.099 120.608 313.075 119.456C312.051 118.368 311.347 117.12 310.963 115.712C310.515 113.984 310.483 112.48 310.867 111.2C311.315 109.92 311.987 108.992 312.883 108.416C313.779 107.84 314.835 107.744 316.051 108.128C317.267 108.512 318.419 109.504 319.507 111.104C320.275 112.256 321.395 113.184 322.867 113.888C324.339 114.592 325.907 115.008 327.571 115.136C329.235 115.264 330.835 115.04 332.371 114.464C333.971 113.952 335.219 113.024 336.115 111.68C336.755 110.72 337.203 109.344 337.459 107.552C337.779 105.76 337.971 104 338.035 102.272C334.771 103.616 331.411 104.128 327.955 103.808C324.563 103.424 321.459 102.368 318.643 100.64C315.891 98.848 313.651 96.48 311.923 93.536C310.259 90.528 309.555 87.136 309.811 83.36C310.003 80.096 310.675 77.024 311.827 74.144C313.043 71.264 315.027 68.864 317.779 66.944C320.019 65.408 322.547 64.416 325.363 63.968C328.179 63.456 330.899 63.2 333.523 63.2C335.059 63.2 336.563 63.2 338.035 63.2C339.571 63.2 340.979 63.392 342.259 63.776C343.539 64.16 344.691 64.8 345.715 65.696C346.739 66.592 347.507 67.904 348.019 69.632C348.851 72.32 349.299 74.976 349.363 77.6C349.491 80.224 349.555 82.976 349.555 85.856ZM331.027 93.824C331.667 93.824 332.275 93.76 332.851 93.632C333.491 93.504 334.099 93.344 334.675 93.152C335.763 92.768 336.563 92.256 337.075 91.616C337.651 90.976 338.035 90.272 338.227 89.504C338.419 88.672 338.483 87.776 338.419 86.816C338.419 85.856 338.419 84.864 338.419 83.84C338.419 83.008 338.387 82.08 338.323 81.056C338.323 80.032 338.259 79.072 338.131 78.176C338.003 77.216 337.811 76.384 337.555 75.68C337.299 74.976 336.915 74.528 336.403 74.336C335.507 74.08 334.483 73.92 333.331 73.856C332.179 73.728 331.027 73.728 329.875 73.856C328.723 73.92 327.603 74.144 326.515 74.528C325.491 74.848 324.627 75.296 323.923 75.872C322.963 76.704 322.227 77.728 321.715 78.944C321.203 80.16 320.883 81.44 320.755 82.784C320.691 84.128 320.787 85.44 321.043 86.72C321.363 88 321.907 89.152 322.675 90.176C323.571 91.456 324.787 92.384 326.323 92.96C327.859 93.536 329.427 93.824 331.027 93.824ZM369.724 60.608C371.836 59.584 374.044 58.848 376.348 58.4C378.652 57.952 380.924 57.856 383.164 58.112C385.468 58.368 387.676 58.976 389.788 59.936C391.964 60.896 393.948 62.24 395.74 63.968C397.212 65.44 398.492 67.232 399.58 69.344C400.668 71.392 401.468 73.408 401.98 75.392C403.068 78.912 403.228 82.464 402.46 86.048C401.692 89.632 400.38 92.96 398.524 96.032C397.628 97.44 396.508 98.72 395.164 99.872C393.884 100.96 392.508 101.856 391.036 102.56C389.116 103.456 387.036 104.064 384.796 104.384C382.556 104.768 380.38 104.864 378.268 104.672C374.428 104.48 371.036 103.52 368.092 101.792C365.212 100.064 362.876 97.856 361.084 95.168C359.356 92.48 358.204 89.44 357.628 86.048C357.116 82.592 357.34 79.072 358.3 75.488C359.324 71.648 360.796 68.544 362.716 66.176C364.7 63.744 367.036 61.888 369.724 60.608ZM372.604 73.472C371.644 74.368 370.908 75.488 370.396 76.832C369.884 78.176 369.564 79.584 369.436 81.056C369.308 82.464 369.404 83.904 369.724 85.376C370.108 86.784 370.684 88.064 371.452 89.216C372.092 90.176 373.244 90.976 374.908 91.616C376.572 92.256 378.3 92.64 380.092 92.768C382.14 92.896 383.932 92.352 385.468 91.136C387.004 89.856 388.156 88.288 388.924 86.432C389.756 84.576 390.14 82.56 390.076 80.384C390.012 78.208 389.436 76.224 388.348 74.432C387.58 73.152 386.492 72.224 385.084 71.648C383.74 71.008 382.3 70.688 380.764 70.688C379.292 70.624 377.82 70.848 376.348 71.36C374.876 71.808 373.628 72.512 372.604 73.472Z" fill="#EFFAF9"/>
<defs>
<clipPath id="paint0_diamond_50_106_clip_path"><rect width="441" height="150" rx="12"/></clipPath><linearGradient id="paint0_diamond_50_106" x1="0" y1="0" x2="500" y2="500" gradientUnits="userSpaceOnUse">
<stop stop-color="#A6004B"/>
<stop offset="1" stop-color="#2A8F87"/>
</linearGradient>
</defs>
</svg>
