<svg width="150" height="150" viewBox="0 0 150 150" fill="none" xmlns="http://www.w3.org/2000/svg">
<g clip-path="url(#paint0_diamond_50_100_clip_path)" data-figma-skip-parse="true"><g transform="matrix(0.16 -0.0375 0.0436167 0.186098 138.5 139.5)"><rect x="0" y="0" width="842.444" height="882.206" fill="url(#paint0_diamond_50_100)" opacity="1" shape-rendering="crispEdges"/><rect x="0" y="0" width="842.444" height="882.206" transform="scale(1 -1)" fill="url(#paint0_diamond_50_100)" opacity="1" shape-rendering="crispEdges"/><rect x="0" y="0" width="842.444" height="882.206" transform="scale(-1 1)" fill="url(#paint0_diamond_50_100)" opacity="1" shape-rendering="crispEdges"/><rect x="0" y="0" width="842.444" height="882.206" transform="scale(-1)" fill="url(#paint0_diamond_50_100)" opacity="1" shape-rendering="crispEdges"/></g></g><rect width="150" height="150" rx="12" data-figma-gradient-fill="{&#34;type&#34;:&#34;GRADIENT_DIAMOND&#34;,&#34;stops&#34;:[{&#34;color&#34;:{&#34;r&#34;:0.65098041296005249,&#34;g&#34;:0.0,&#34;b&#34;:0.29411765933036804,&#34;a&#34;:1.0},&#34;position&#34;:0.0},{&#34;color&#34;:{&#34;r&#34;:0.16470588743686676,&#34;g&#34;:0.56078433990478516,&#34;b&#34;:0.52941179275512695,&#34;a&#34;:1.0},&#34;position&#34;:1.0}],&#34;stopsVar&#34;:[{&#34;color&#34;:{&#34;r&#34;:0.65098041296005249,&#34;g&#34;:0.0,&#34;b&#34;:0.29411765933036804,&#34;a&#34;:1.0},&#34;position&#34;:0.0},{&#34;color&#34;:{&#34;r&#34;:0.16470588743686676,&#34;g&#34;:0.56078433990478516,&#34;b&#34;:0.52941179275512695,&#34;a&#34;:1.0},&#34;position&#34;:1.0}],&#34;transform&#34;:{&#34;m00&#34;:320.0,&#34;m01&#34;:87.233489990234375,&#34;m02&#34;:-65.116729736328125,&#34;m10&#34;:-74.999992370605469,&#34;m11&#34;:372.19619750976562,&#34;m12&#34;:-9.0981035232543945},&#34;opacity&#34;:1.0,&#34;blendMode&#34;:&#34;NORMAL&#34;,&#34;visible&#34;:true}"/>
<path d="M117.72 26.68C118.893 28.0667 119.48 29.5067 119.48 31C119.48 31.64 119.427 32.3333 119.32 33.08C119.32 33.72 119.267 34.3067 119.16 34.84C118.84 36.0133 118.147 37.1333 117.08 38.2C116.227 38.84 115.053 39.32 113.56 39.64C112.813 39.8533 112.067 40.0133 111.32 40.12C110.573 40.2267 109.773 40.3867 108.92 40.6C108.173 40.7067 107.427 40.76 106.68 40.76C105.933 40.76 105.133 40.76 104.28 40.76H96.12C94.2 40.8667 92.28 40.92 90.36 40.92C88.5467 40.92 86.7333 40.92 84.92 40.92C85.0267 44.2267 85.08 47.8 85.08 51.64C85.08 55.3733 85.0267 59.7467 84.92 64.76C84.92 69.7733 84.8667 75.5867 84.76 82.2C84.76 88.8133 84.76 96.4933 84.76 105.24V117.4C84.76 118.467 84.8133 119.267 84.92 119.8C84.92 120.227 84.92 120.653 84.92 121.08C84.92 121.4 84.8667 121.827 84.76 122.36C84.5467 123.32 84.3867 124.44 84.28 125.72C84.28 126.253 84.2267 126.787 84.12 127.32C84.0133 127.747 83.8533 128.227 83.64 128.76C83.2133 129.187 83 129.507 83 129.72L82.52 130.68C81.9867 131.747 80.9733 132.76 79.48 133.72C77.1333 134.893 74.52 135.16 71.64 134.52C69.8267 134.307 68.44 133.827 67.48 133.08C66.52 132.12 65.8267 131.16 65.4 130.2C64.76 129.027 64.3867 127.907 64.28 126.84C63.96 125.88 63.8 124.867 63.8 123.8V41.56C63.16 41.56 61.8267 41.56 59.8 41.56C57.7733 41.56 55.5867 41.56 53.24 41.56C51 41.4533 48.8667 41.3467 46.84 41.24C44.8133 41.1333 43.4267 41.0267 42.68 40.92C42.04 40.8133 41.0267 40.6533 39.64 40.44C38.36 40.2267 37.2933 40.0133 36.44 39.8C34.2 39.16 32.44 38.1467 31.16 36.76C29.9867 35.3733 29.4 33.8267 29.4 32.12C29.4 31.48 29.4 30.84 29.4 30.2C29.4 29.56 29.5067 28.9733 29.72 28.44C30.04 27.16 30.8933 26.0933 32.28 25.24C32.7067 24.92 33.3467 24.5467 34.2 24.12C35.16 23.5867 36.0667 23.2133 36.92 23C38.2 22.5733 39.8 22.2533 41.72 22.04C42.5733 21.9333 43.4267 21.88 44.28 21.88C45.1333 21.88 46.04 21.88 47 21.88C50.7333 21.88 54.2533 21.88 57.56 21.88C60.9733 21.88 64.5467 21.8267 68.28 21.72C74.4667 21.6133 80.6 21.6133 86.68 21.72C92.8667 21.72 99 21.8267 105.08 22.04C106.467 22.1467 107.8 22.3067 109.08 22.52C110.36 22.7333 111.64 23.1067 112.92 23.64C113.88 23.96 114.787 24.3867 115.64 24.92C116.493 25.3467 117.187 25.9333 117.72 26.68Z" fill="#EFFAF9"/>
<defs>
<clipPath id="paint0_diamond_50_100_clip_path"><rect width="150" height="150" rx="12"/></clipPath><linearGradient id="paint0_diamond_50_100" x1="0" y1="0" x2="500" y2="500" gradientUnits="userSpaceOnUse">
<stop stop-color="#A6004B"/>
<stop offset="1" stop-color="#2A8F87"/>
</linearGradient>
</defs>
</svg>
